<svg width="60" height="60" viewBox="0 0 60 60" fill="none" xmlns="http://www.w3.org/2000/svg"><g clip-path="url(#clip0_544_431)"><path d="M35.0468 53.0372C34.1331 53.0372 33.3921 52.2964 33.3921 51.3826V40.0967C33.3921 37.9721 34.2129 35.9678 35.703 34.4535L43.3936 26.6382C44.4507 25.581 45.8437 25.004 47.3255 25.004C48.8073 25.004 50.2002 25.581 51.2479 26.6288L51.2567 26.6376C52.3083 27.689 52.8853 29.0821 52.8853 30.5638C52.8853 32.0457 52.3085 33.4386 51.2607 34.4863L43.3782 42.3688C43.3659 43.2915 43.3522 45.3431 43.3406 48.951L46.7584 48.9708L53.7237 43.6218C54.6541 42.9074 55.2094 41.7807 55.2094 40.6074V8.99983C55.2094 7.76596 54.2056 6.76201 52.9717 6.76201H52.954C51.7201 6.76201 50.7162 7.76596 50.7162 8.99983V21.2033C50.7162 22.1172 49.9752 22.8579 49.0615 22.8579C48.1478 22.8579 47.4068 22.1171 47.4068 21.2033V8.99983C47.4068 5.94111 49.8953 3.45264 52.954 3.45264H52.9717C56.0304 3.45264 58.5187 5.94111 58.5187 8.99983V40.6072C58.5187 42.8019 57.4797 44.9097 55.7392 46.2463L48.324 51.9408C48.0324 52.1649 47.6747 52.2877 47.3067 52.2831L41.6716 52.2506C40.7597 52.2453 40.0241 51.5033 40.0265 50.5915C40.0321 48.4876 40.0399 46.2598 40.0503 44.5545C40.0555 43.6983 40.0611 42.9734 40.0676 42.4606C40.0812 41.3538 40.0856 40.9808 40.5724 40.494L48.9205 32.1459C49.3433 31.7233 49.5759 31.1614 49.5759 30.5635C49.5759 29.9656 49.3433 29.4039 48.9205 28.9811L48.9117 28.9723C48.4851 28.5459 47.9232 28.3131 47.3255 28.3131C46.7277 28.3131 46.1659 28.546 45.7431 28.9686L38.0619 36.7744C37.1846 37.666 36.7013 38.8458 36.7013 40.0966V51.3824C36.7015 52.2965 35.9607 53.0372 35.0468 53.0372Z" fill="#003B4A"></path><path d="M48.3123 49.3547H35.0747V58.3448H48.3123V49.3547Z" fill="#F7CF47"></path><path d="M48.3125 60H35.0746C34.1609 60 33.4199 59.2591 33.4199 58.3453V49.3555C33.4199 48.4415 34.1609 47.7008 35.0746 47.7008H48.3123C49.2261 47.7008 49.967 48.4417 49.967 49.3555V58.3453C49.9671 59.259 49.2263 60 48.3125 60ZM36.7293 56.6906H46.6577V51.0102H36.7293V56.6906Z" fill="#003B4A"></path><path d="M24.9531 53.0372C24.0394 53.0372 23.2985 52.2964 23.2985 51.3826V40.0967C23.2985 38.846 22.8153 37.6661 21.9379 36.7747L14.2474 28.9592C13.834 28.546 13.2721 28.3131 12.6744 28.3131C12.0767 28.3131 11.5148 28.546 11.092 28.9686L11.0754 28.985C10.6566 29.4039 10.4238 29.9658 10.4238 30.5636C10.4238 31.1613 10.6564 31.7232 11.0792 32.146L19.4273 40.4941C19.914 40.9809 19.9185 41.3537 19.9321 42.4607C19.9385 42.9735 19.9441 43.6985 19.9494 44.5546C19.9598 46.2599 19.9675 48.4877 19.9731 50.5917C19.9756 51.5036 19.2398 52.2454 18.3281 52.2507L12.693 52.2833C12.6898 52.2833 12.6867 52.2833 12.6834 52.2833C12.319 52.2833 11.9648 52.163 11.6754 51.941L4.26053 46.2463C2.51994 44.9098 1.48096 42.802 1.48096 40.6073V8.99982C1.48096 5.94111 3.96932 3.45264 7.02803 3.45264H7.04572C10.1044 3.45264 12.5929 5.94111 12.5929 8.99982V21.2033C12.5929 22.1172 11.8519 22.8579 10.9382 22.8579C10.0245 22.8579 9.28354 22.1171 9.28354 21.2033V8.99982C9.28354 7.76596 8.27959 6.76201 7.04572 6.76201H7.02803C5.79416 6.76201 4.79033 7.76596 4.79033 8.99982V40.6072C4.79033 41.7802 5.34568 42.9071 6.27604 43.6213L13.2413 48.9705L16.6591 48.9507C16.6477 45.3426 16.6339 43.2911 16.6215 42.3685L8.73943 34.4859C7.69166 33.4381 7.11486 32.0452 7.11486 30.5634C7.11486 29.0815 7.69166 27.6887 8.73943 26.6409L8.75596 26.6247C9.79986 25.5808 11.1929 25.0038 12.6746 25.0038C14.1563 25.0038 15.5493 25.5808 16.5971 26.6286L24.2969 34.4535C25.7872 35.9679 26.6078 37.9721 26.6078 40.0967V51.3826C26.6078 52.2965 25.8671 53.0372 24.9531 53.0372Z" fill="#003B4A"></path><path d="M24.9246 49.3547H11.687V58.3448H24.9246V49.3547Z" fill="#F7CF47"></path><path d="M24.9251 60H11.6874C10.7737 60 10.0327 59.2591 10.0327 58.3453V49.3555C10.0327 48.4415 10.7737 47.7008 11.6874 47.7008H24.9251C25.8388 47.7008 26.5798 48.4417 26.5798 49.3555V58.3453C26.5798 59.259 25.8391 60 24.9251 60ZM13.3421 56.6906H23.2705V51.0102H13.3421V56.6906Z" fill="#003B4A"></path><path d="M29.9996 27.9479C37.2602 27.9479 43.1462 22.062 43.1462 14.8013C43.1462 7.5407 37.2602 1.65479 29.9996 1.65479C22.7389 1.65479 16.853 7.5407 16.853 14.8013C16.853 22.062 22.7389 27.9479 29.9996 27.9479Z" fill="#F7CF47"></path><path d="M29.9998 29.6021C26.0462 29.6021 22.3294 28.0627 19.5337 25.267C13.7628 19.4963 13.7628 10.1061 19.5337 4.33523C22.3294 1.53949 26.0463 0 29.9998 0C33.9532 0 37.6701 1.53949 40.4658 4.33512C46.2367 10.106 46.2367 19.4961 40.4658 25.2671C37.6704 28.0625 33.9533 29.6021 29.9998 29.6021ZM29.9998 3.30938C26.9301 3.30938 24.0445 4.50469 21.874 6.67523C17.3934 11.156 17.3934 18.4465 21.874 22.927C24.0444 25.0975 26.9303 26.2929 29.9998 26.2929C33.0692 26.2929 35.955 25.0976 38.1255 22.927C42.6061 18.4465 42.6061 11.156 38.1255 6.67523C35.9552 4.50481 33.0695 3.30938 29.9998 3.30938Z" fill="#003B4A"></path><path d="M26.2095 29.0457C26.1616 29.0457 26.1132 29.0437 26.0644 29.0393C25.154 28.9602 24.48 28.1581 24.559 27.2477L24.9469 22.7821C25.1036 20.9792 25.9455 19.3367 27.3176 18.1568L28.237 17.3665C30.2036 15.6757 32.9174 15.2323 35.3199 16.2092L36.738 16.7859C36.7496 16.7907 36.7613 16.7955 36.7729 16.8006L42.3837 19.2337C43.222 19.5972 43.6071 20.5717 43.2435 21.4101C42.8798 22.2483 41.9055 22.6339 41.0671 22.2699L35.4735 19.8445L34.073 19.2749C32.8252 18.7673 31.4157 18.9978 30.3946 19.8759L29.4753 20.6663C28.7625 21.2791 28.3254 22.1321 28.2442 23.0684L27.8563 27.5338C27.7811 28.3957 27.0585 29.0457 26.2095 29.0457Z" fill="#003B4A"></path><path d="M17.1479 19.2306C16.4681 19.2306 15.8309 18.8085 15.5893 18.1314C15.2824 17.2706 15.7311 16.324 16.5918 16.0169L24.216 13.2969C24.3063 13.2648 24.3514 13.2006 24.3734 13.1524C24.3954 13.1042 24.4143 13.0283 24.3797 12.9389L23.3123 10.1855C22.9135 9.15608 23.0166 7.97788 23.5883 7.03393L26.8039 1.72206C27.277 0.940415 28.2944 0.69022 29.0763 1.16342C29.8581 1.63663 30.1081 2.65417 29.6349 3.43581L26.4192 8.74792C26.3753 8.82034 26.3674 8.91057 26.3979 8.98932L27.4654 11.7428C27.818 12.6525 27.7886 13.642 27.3827 14.5292C26.9767 15.4165 26.247 16.0858 25.3281 16.4137L17.7038 19.1338C17.5202 19.1995 17.3325 19.2306 17.1479 19.2306Z" fill="#003B4A"></path><path d="M31.2009 14.926C31.1169 14.926 31.0319 14.9195 30.9463 14.9063C30.0431 14.7669 29.4241 13.9216 29.5636 13.0184L29.872 11.0211C30.1592 9.16037 31.4275 7.57963 33.1818 6.8956L39.2571 4.52642C40.1086 4.1942 41.0679 4.6156 41.3997 5.46697C41.7318 6.31845 41.3107 7.27775 40.4592 7.60986L34.384 9.97892C33.7258 10.2356 33.2502 10.8284 33.1425 11.5264L32.834 13.5237C32.7079 14.3412 32.0033 14.926 31.2009 14.926Z" fill="#003B4A"></path></g><defs><clipPath id="clip0_544_431"><rect width="60" height="60" fill="white"></rect></clipPath></defs></svg>