<svg width="58" height="60" viewBox="0 0 58 60" fill="none" xmlns="http://www.w3.org/2000/svg"><path class="secondary" d="M35.0318 26.7145C31.4309 26.7145 29.8153 28.7327 29.1796 29.9183C29.0998 30.0671 28.8831 30.067 28.8034 29.9179C28.1699 28.7323 26.5633 26.7145 22.9624 26.7145C18.8606 26.7145 15.2524 29.5144 15.2524 34.6274C15.2524 36.6964 15.6741 38.4689 16.8443 40.4471C19.229 44.4782 27.0852 49.7041 28.6991 50.7337C28.8776 50.8476 29.1035 50.8477 29.2821 50.7344C30.8972 49.7096 38.7549 44.5096 41.1584 40.4469C42.3286 38.4687 42.7473 36.6962 42.7473 34.6272C42.7476 29.5147 39.1334 26.7145 35.0318 26.7145Z" fill="#F7CF47"></path><path d="M28.9918 52.5504C28.5576 52.5504 28.1348 52.4267 27.7682 52.1929C26.7843 51.565 18.0741 45.9249 15.355 41.3285C14.0874 39.1856 13.522 37.1189 13.522 34.6276C13.522 31.732 14.5102 29.2661 16.3799 27.4965C18.0919 25.876 20.4299 24.9835 22.9628 24.9835C25.9237 24.9835 27.828 26.1447 28.9933 27.3096C30.1606 26.145 32.0678 24.9835 35.0321 24.9835C37.5653 24.9835 39.9042 25.8757 41.6173 27.496C43.4893 29.2663 44.4788 31.7322 44.4788 34.6276C44.4788 37.1224 43.9143 39.1889 42.6487 41.3285C39.9101 45.9576 31.195 51.5714 30.2102 52.1962C29.8447 52.428 29.4235 52.5504 28.9918 52.5504ZM22.9628 28.4456C19.987 28.4456 16.9842 30.357 16.9842 34.6276C16.9842 36.5134 17.3756 37.9441 18.3347 39.5657C20.0934 42.5381 25.7456 46.7216 28.9935 48.8611C32.2421 46.732 37.8978 42.56 39.6691 39.5656C40.6261 37.9474 41.0167 36.5168 41.0167 34.6275C41.0167 30.3572 38.0109 28.4455 35.0321 28.4455C32.4713 28.4455 31.2658 29.6912 30.7056 30.7361C30.366 31.3685 29.7096 31.7607 28.9921 31.7607C28.2728 31.7607 27.6158 31.3672 27.2772 30.7337C26.7193 29.6901 25.5178 28.4456 22.9628 28.4456Z" fill="#003B4A"></path><path d="M37.1694 59.9999H11.9538C8.61584 59.9999 5.8999 57.2842 5.8999 53.946V26.4005C5.8999 24.3582 6.92447 22.4778 8.64057 21.3706L24.2263 11.3152C27.1262 9.44408 30.8738 9.44408 33.7738 11.3152L49.3594 21.3706C51.0756 22.4778 52.1001 24.3581 52.1001 26.4005V56.4467C52.1001 57.4027 51.3249 58.1778 50.369 58.1778C49.4131 58.1778 48.6379 57.4028 48.6379 56.4467V26.4005C48.6379 25.5395 48.206 24.7467 47.4822 24.2798L31.897 14.2244C30.1371 13.089 27.863 13.0888 26.103 14.2244L10.5176 24.2798C9.79393 24.7467 9.36209 25.5394 9.36209 26.4005V53.9461C9.36209 55.3754 10.5247 56.5379 11.9538 56.5379H37.1694C38.1253 56.5379 38.9005 57.3128 38.9005 58.269C38.9005 59.2251 38.1253 59.9999 37.1694 59.9999Z" fill="#003B4A"></path><path d="M56.0609 20.2716C55.7276 20.2716 55.3912 20.1757 55.0941 19.9752L31.9889 4.3841C30.1733 3.15891 27.8269 3.15891 26.0114 4.3841L2.90627 19.9752C2.11409 20.5099 1.03795 20.3012 0.502993 19.5087C-0.0319682 18.7161 0.176977 17.6401 0.969516 17.1054L24.0747 1.51418C27.0668 -0.504727 30.9333 -0.504727 33.9255 1.51418L57.0306 17.1053C57.823 17.64 58.032 18.716 57.4971 19.5086C57.1628 20.0041 56.6168 20.2716 56.0609 20.2716Z" fill="#003B4A"></path></svg>