<svg width="60" height="60" viewBox="0 0 60 60" fill="none" xmlns="http://www.w3.org/2000/svg"><path d="M30.0001 60C21.9868 60 14.4532 56.8794 8.78679 51.213C-2.91005 39.516 -2.91005 20.4837 8.78679 8.78672C14.4532 3.12059 21.9868 0 30.0001 0C38.0133 0 45.547 3.12059 51.2133 8.78695C62.9102 20.484 62.9102 39.5163 51.2133 51.2133C45.547 56.8794 38.0135 60 30.0001 60ZM30.0001 3.57598C22.942 3.57598 16.3064 6.32449 11.3156 11.3155C1.0128 21.618 1.0128 38.382 11.3156 48.6845C16.3066 53.6755 22.9422 56.424 30.0003 56.424C37.0584 56.424 43.694 53.6755 48.6848 48.6845C58.9876 38.382 58.9876 21.618 48.6848 11.3155C43.6939 6.32449 37.0582 3.57598 30.0001 3.57598ZM30.0001 47.0007C25.6446 47.0007 21.2889 45.3429 17.973 42.0271C11.3414 35.3952 11.3414 24.6049 17.973 17.973C24.6046 11.3414 35.3951 11.3414 42.027 17.973C42.7252 18.6712 42.7252 19.8034 42.027 20.5018C41.3288 21.1999 40.1967 21.1999 39.4982 20.5018C34.2609 15.2641 25.7388 15.2643 20.5013 20.5018C15.264 25.7392 15.264 34.2612 20.5013 39.4985C25.7387 44.7361 34.2608 44.7359 39.4982 39.4985C40.1964 38.8004 41.3288 38.8004 42.0268 39.4985C42.725 40.1967 42.725 41.3289 42.0268 42.0273C38.7113 45.3429 34.3556 47.0007 30.0001 47.0007Z" fill="#003B4A"></path><path class="secondary" d="M40.9401 22.0428L37.9576 19.0603C36.921 18.0237 36.921 16.3433 37.9576 15.3068L45.5557 7.70867C46.5922 6.67214 48.2726 6.67214 49.3092 7.70867L52.2917 10.6912C53.3282 11.7277 53.3282 13.4082 52.2917 14.4447L44.6936 22.0428C43.6572 23.0793 41.9766 23.0793 40.9401 22.0428Z" fill="#F7CF47"></path><path d="M42.8169 24.6083C41.6303 24.6083 40.5148 24.1461 39.6758 23.307L36.6932 20.3246C35.8542 19.4857 35.3921 18.3699 35.3921 17.1836C35.3921 15.997 35.8542 14.8814 36.693 14.0425L44.2911 6.44445C45.1301 5.60551 46.2458 5.14355 47.4322 5.14355C48.6187 5.14355 49.7342 5.60563 50.5731 6.44445L53.5559 9.42723C54.3949 10.2662 54.857 11.3819 54.857 12.5683C54.857 13.7547 54.395 14.8704 53.5559 15.7093L45.9581 23.3071C45.119 24.1461 44.0035 24.6083 42.8169 24.6083ZM47.4323 8.7193C47.2982 8.7193 47.0405 8.75234 46.8197 8.97301L39.2219 16.5711C38.8842 16.9088 38.8842 17.4583 39.2219 17.7961L42.2044 20.7786C42.4252 20.9994 42.6829 21.0325 42.8169 21.0325C42.9509 21.0325 43.2084 20.9995 43.4293 20.7788L51.0275 13.1807C51.2481 12.9601 51.2812 12.7023 51.2812 12.5683C51.2812 12.4343 51.2481 12.1766 51.0275 11.9558L48.0447 8.97301C47.824 8.75223 47.5662 8.7193 47.4323 8.7193Z" fill="#003B4A"></path><path class="secondary" d="M10.6911 52.2915L7.70854 49.3089C6.67202 48.2724 6.67202 46.5919 7.70854 45.5554L15.3066 37.9573C16.3432 36.9208 18.0236 36.9208 19.0601 37.9573L22.0427 40.9399C23.0792 41.9764 23.0792 43.6569 22.0427 44.6934L14.4446 52.2915C13.4082 53.328 11.7276 53.328 10.6911 52.2915Z" fill="#F7CF47"></path><path d="M12.5684 54.8568C11.3819 54.8568 10.2664 54.3947 9.42746 53.5559L6.44469 50.5731C5.60574 49.7342 5.14355 48.6185 5.14355 47.4322C5.14355 46.2455 5.60563 45.1299 6.44469 44.2911L14.0425 36.6932C14.8815 35.8543 15.997 35.3921 17.1836 35.3921C18.3702 35.3921 19.4857 35.8543 20.3247 36.6933L23.3073 39.6758C24.1463 40.5147 24.6084 41.6304 24.6084 42.8169C24.6084 44.0034 24.1463 45.1189 23.3075 45.9578L15.7093 53.5557C14.8704 54.3947 13.7548 54.8568 12.5684 54.8568ZM17.1839 38.9676C17.0498 38.9676 16.7923 39.0006 16.5714 39.2213L8.97324 46.8194C8.75258 47.0401 8.71953 47.2979 8.71953 47.4319C8.71953 47.5659 8.75258 47.8235 8.97324 48.0444L11.956 51.0271C12.1767 51.2478 12.4345 51.2808 12.5684 51.2808C12.7024 51.2808 12.9602 51.2478 13.181 51.0271L20.7788 43.429C21.1166 43.0913 21.1166 42.5418 20.7788 42.2041L17.7963 39.2215C17.5754 39.0006 17.3177 38.9676 17.1839 38.9676Z" fill="#003B4A"></path><path class="secondary" d="M37.9576 40.9399L40.9401 37.9573C41.9766 36.9208 43.6571 36.9208 44.6936 37.9573L52.2917 45.5554C53.3282 46.5919 53.3282 48.2724 52.2917 49.3089L49.3092 52.2915C48.2726 53.328 46.5922 53.328 45.5557 52.2915L37.9576 44.6934C36.921 43.657 36.921 41.9764 37.9576 40.9399Z" fill="#F7CF47"></path><path d="M47.432 54.8568C46.2455 54.8568 45.13 54.3947 44.2911 53.5559L36.693 45.9578C35.854 45.1189 35.3921 44.0031 35.3921 42.8169C35.3921 41.6302 35.8542 40.5146 36.693 39.6758L39.6758 36.6932C40.5145 35.8543 41.6302 35.3921 42.8167 35.3921C44.0034 35.3921 45.119 35.8543 45.9578 36.6933L53.5557 44.2911C54.3947 45.13 54.8568 46.2458 54.8568 47.4322C54.8568 48.6187 54.3947 49.7342 53.5557 50.5731L50.5731 53.5559C49.7341 54.3947 48.6186 54.8568 47.432 54.8568ZM42.8166 38.9676C42.6827 38.9676 42.4251 39.0006 42.2044 39.2213L39.2215 42.2041C38.8838 42.5418 38.8838 43.0913 39.2215 43.429L46.8196 51.0271C47.0403 51.2478 47.2981 51.2808 47.432 51.2808C47.566 51.2808 47.8238 51.2478 48.0446 51.0271L51.0271 48.0444C51.2479 47.8237 51.2808 47.5659 51.2808 47.4319C51.2808 47.2979 51.2478 47.0402 51.0271 46.8194L43.429 39.2215C43.2083 39.0006 42.9507 38.9676 42.8166 38.9676Z" fill="#003B4A"></path><path class="secondary" d="M7.70895 10.6912L10.6915 7.70867C11.728 6.67214 13.4085 6.67214 14.445 7.70867L22.0431 15.3068C23.0796 16.3433 23.0796 18.0237 22.0431 19.0603L19.0605 22.0428C18.024 23.0793 16.3436 23.0793 15.307 22.0428L7.70895 14.4447C6.67254 13.4083 6.67254 11.7277 7.70895 10.6912Z" fill="#F7CF47"></path><path d="M17.1836 24.6083C15.997 24.6083 14.8814 24.1461 14.0425 23.307L6.44469 15.7092C5.60563 14.8702 5.14355 13.7545 5.14355 12.5682C5.14355 11.3816 5.60563 10.2659 6.44469 9.4271L9.42723 6.44433C10.2663 5.60539 11.3819 5.14343 12.5683 5.14343C13.7547 5.14343 14.8704 5.6055 15.7093 6.44433L23.3074 14.0424C24.1463 14.8814 24.6083 15.9971 24.6083 17.1835C24.6083 18.37 24.1462 19.4855 23.3074 20.3245L20.3246 23.307C19.4857 24.1461 18.37 24.6083 17.1836 24.6083ZM12.5682 8.71929C12.4341 8.71929 12.1764 8.75234 11.9557 8.973L8.97312 11.9555C8.75234 12.1762 8.71941 12.434 8.71941 12.5681C8.71941 12.702 8.75246 12.9596 8.97312 13.1805L16.5712 20.7784C16.792 20.9991 17.0497 21.0323 17.1838 21.0323C17.3177 21.0323 17.5753 20.9993 17.7959 20.7786L20.7788 17.7958C21.1166 17.4581 21.1166 16.9086 20.7788 16.5709L13.1806 8.973C12.9598 8.75222 12.7021 8.71929 12.5682 8.71929Z" fill="#003B4A"></path></svg>