<svg width="60" height="44" viewBox="0 0 60 44" fill="none" xmlns="http://www.w3.org/2000/svg"><path d="M13.573 34.7999C12.2026 34.8 10.8326 34.2786 9.78978 33.2356L9.77736 33.2233C7.80942 31.255 7.75985 28.1986 9.65713 25.7905C13.0955 21.4264 23.2244 7.40724 23.3264 7.26603C23.3744 7.1997 23.4274 7.13724 23.4853 7.07935C24.9775 5.58743 27.1122 4.85524 29.2051 5.11598L36.9674 5.71048C37.8127 5.77528 38.4454 6.51298 38.3806 7.35802C38.316 8.2033 37.5774 8.834 36.7331 8.77119L28.932 8.17365C28.9043 8.17154 28.8769 8.16873 28.8494 8.16509C27.7195 8.01697 26.5643 8.39209 25.7368 9.17174C24.7127 10.5888 15.4242 23.4311 12.0685 27.6899C11.3047 28.6594 10.9714 30.075 11.9483 31.0521L11.9606 31.0642C12.85 31.9537 14.2978 31.954 15.1871 31.0642L20.6813 25.5463C21.2792 24.9454 22.2513 24.9434 22.852 25.5417C23.4528 26.1397 23.455 27.1118 22.8566 27.7124L17.36 33.2328C16.3154 34.2777 14.9438 34.7999 13.573 34.7999Z" fill="#003B4A"></path><path class="secondary" d="M41.4527 25.3584L30.7024 25.445C28.5947 25.445 26.8858 23.7362 26.8858 21.6284V21.611C26.8858 19.7596 28.2043 18.2166 29.9534 17.8684H5.26783C3.20626 17.8684 1.53516 19.5396 1.53516 21.6011V38.4718C1.53516 40.5334 3.20637 42.2045 5.26783 42.2045H41.7586C43.8202 42.2045 45.4913 40.5333 45.4913 38.4718V23.838C44.3709 24.8035 42.9413 25.3463 41.4527 25.3584Z" fill="#F7CF47"></path><path d="M41.7583 43.7393H5.2676C2.36321 43.7393 0 41.3764 0 38.4719V21.6011C0 18.6966 2.36321 16.3335 5.2676 16.3335H29.953C30.7426 16.3335 31.4031 16.9323 31.4806 17.718C31.5579 18.5036 31.0268 19.2197 30.2527 19.3738C29.1909 19.585 28.4204 20.5259 28.4204 21.6109V21.6283C28.4204 22.8863 29.4439 23.9098 30.702 23.9098L41.4401 23.8232C42.5573 23.8142 43.6401 23.4065 44.4889 22.6752C44.9436 22.2835 45.5847 22.1928 46.1303 22.4427C46.676 22.6929 47.0257 23.238 47.0257 23.8381V38.4719C47.0259 41.3764 44.6628 43.7393 41.7583 43.7393ZM5.2676 19.4032C4.05564 19.4032 3.06986 20.3891 3.06986 21.601V38.4717C3.06986 39.6835 4.05576 40.6692 5.2676 40.6692H41.7582C42.9701 40.6692 43.9559 39.6833 43.9559 38.4717V26.4621C43.1596 26.7385 42.3184 26.8863 41.4647 26.8932L30.7145 26.9798C27.7512 26.9798 25.3507 24.5792 25.3507 21.6284V21.6111C25.3507 20.8301 25.5211 20.081 25.8294 19.4034H5.2676V19.4032Z" fill="#003B4A"></path><path d="M23.4315 43.7115C15.8911 43.7115 9.75635 37.5767 9.75635 30.0363C9.75635 22.4959 15.8911 16.3611 23.4315 16.3611C24.2792 16.3611 24.9665 17.0484 24.9665 17.896C24.9665 18.7436 24.2792 19.4309 23.4315 19.4309C17.5837 19.4309 12.8262 24.1884 12.8262 30.0363C12.8262 35.8842 17.5837 40.6416 23.4315 40.6416C29.2794 40.6416 34.037 35.8842 34.037 30.0363C34.037 29.1887 34.7243 28.5014 35.5719 28.5014C36.4195 28.5014 37.1069 29.1887 37.1069 30.0363C37.1069 37.5767 30.9722 43.7115 23.4315 43.7115Z" fill="#003B4A"></path><path d="M22.9327 36.5363C20.7539 36.4637 18.9746 35.3379 18.9746 34.176C18.9746 33.5587 19.5193 32.6508 20.2093 32.6508C20.9718 32.6508 21.5892 33.722 22.9327 33.9582V31.0168C21.2623 30.3813 19.3014 29.6007 19.3014 27.2766C19.3014 24.9707 21.0082 23.8633 22.9327 23.591V23.0826C22.9327 22.8284 23.2231 22.5923 23.6227 22.5923C23.9677 22.5923 24.3127 22.8283 24.3127 23.0826V23.5365C25.4384 23.5728 27.5626 23.8633 27.5626 25.116C27.5626 25.6063 27.2357 26.6049 26.4369 26.6049C25.8377 26.6049 25.4927 26.0239 24.3125 25.9331V28.5838C25.9647 29.2012 27.8893 30.0544 27.8893 32.5055C27.8893 34.7569 26.4368 36.1185 24.3125 36.4637V36.9902C24.3125 37.2444 23.9675 37.4805 23.6225 37.4805C23.2231 37.4805 22.9325 37.2445 22.9325 36.9902V36.5363H22.9327V36.5363ZM23.1143 28.1481V25.9874C22.2972 26.1509 21.9523 26.5685 21.9523 27.0042C21.9522 27.5308 22.4244 27.8576 23.1143 28.1481ZM24.131 31.5071V33.9401C24.7483 33.7949 25.2385 33.4499 25.2385 32.7963C25.2385 32.197 24.7846 31.8158 24.131 31.5071Z" fill="#003B4A"></path><path d="M30.7144 27.1015C27.7511 27.1015 25.3506 24.7009 25.3506 21.7501V21.7328C25.3506 18.7819 27.7512 16.3813 30.702 16.3813H42.2776C43.1252 16.3813 43.8125 17.0686 43.8125 17.9162C43.8125 18.7638 43.1252 19.4511 42.2776 19.4511H30.702C29.444 19.4511 28.4204 20.4748 28.4204 21.7328V21.7501C28.4204 23.0081 29.444 24.0317 30.702 24.0317L41.44 23.9451C42.6896 23.9351 43.8642 23.443 44.7477 22.5594L52.5722 14.7349C53.1717 14.1357 54.1433 14.1357 54.743 14.7349C55.3424 15.3343 55.3424 16.3062 54.743 16.9057L46.9184 24.7302C45.4617 26.1869 43.5249 26.9983 41.4649 27.0149L30.7144 27.1015Z" fill="#003B4A"></path><path class="secondary" d="M58.4651 10.9732L49.2876 1.79565L43.0556 8.02764L52.2331 17.2052L58.4651 10.9732Z" fill="#F7CF47"></path><path d="M52.2327 18.741C51.8398 18.741 51.4471 18.591 51.1473 18.2914L41.9696 9.11368C41.6817 8.82575 41.52 8.4354 41.52 8.02829C41.52 7.62118 41.6817 7.23094 41.9696 6.9429L48.202 0.710396C48.49 0.422584 48.8803 0.260864 49.2874 0.260864C49.6946 0.260864 50.0848 0.422701 50.3728 0.710396L59.5506 9.88817C60.15 10.4876 60.15 11.4594 59.5506 12.059L53.3181 18.2914C53.0182 18.591 52.6254 18.741 52.2327 18.741ZM45.2257 8.0284L52.2326 15.0353L56.2944 10.9734L49.2876 3.96657L45.2257 8.0284Z" fill="#003B4A"></path></svg>