<svg width="60" height="60" viewBox="0 0 60 60" fill="none" xmlns="http://www.w3.org/2000/svg"><path class="secondary" d="M24.1344 20.3707C27.6361 20.3707 29.207 22.3333 29.8252 23.4862C29.9029 23.6309 30.1136 23.6306 30.1909 23.4858C30.807 22.3329 32.3693 20.3707 35.8705 20.3707C39.859 20.3707 43.3676 23.0933 43.3676 28.0651C43.3676 30.077 42.9577 31.8006 41.8198 33.724C39.5007 37.6439 31.8615 42.7254 30.2923 43.7268C30.1188 43.8375 29.8991 43.8379 29.7253 43.7275C28.1549 42.7309 20.5141 37.6746 18.177 33.724C17.0391 31.8005 16.6318 30.077 16.6318 28.0651C16.6316 23.0933 20.1457 20.3707 24.1344 20.3707Z" fill="#F7CF47"></path><path d="M30.008 45.5105C29.585 45.5105 29.1721 45.3904 28.8141 45.1635C27.8561 44.5554 19.3778 39.0942 16.7132 34.5901C15.4808 32.5067 14.9312 30.4945 14.9312 28.0653C14.9312 25.2449 15.8951 22.8425 17.7189 21.1182C19.3883 19.5397 21.6666 18.6705 24.1344 18.6705C27.0119 18.6705 28.8678 19.7944 30.0064 20.9255C31.1431 19.7941 32.9957 18.6705 35.8706 18.6705C38.3382 18.6705 40.6157 19.5399 42.2837 21.1188C44.1051 22.843 45.068 25.2452 45.068 28.0655C45.068 30.4914 44.5176 32.5037 43.2831 34.5902C40.6373 39.0626 32.1643 44.5496 31.2067 45.1605C30.8476 45.3894 30.4332 45.5105 30.008 45.5105ZM24.1346 22.0711C21.2465 22.0711 18.3322 23.9245 18.3322 28.0651C18.3322 29.899 18.7112 31.2876 19.6404 32.8582C21.3594 35.764 26.8472 39.8136 30.0064 41.885C33.1648 39.8038 38.6497 35.7426 40.3562 32.8582C41.2873 31.2841 41.6671 29.8955 41.6671 28.0651C41.6671 23.9243 38.7557 22.0711 35.8704 22.0711C33.3943 22.0711 32.2307 23.2761 31.6904 24.2872C31.3585 24.9085 30.7136 25.2949 30.0077 25.2949C29.303 25.2949 28.6587 24.9096 28.3263 24.2894C27.7839 23.2775 26.6162 22.0711 24.1346 22.0711Z" fill="#003B4A"></path><path d="M29.9995 60C29.7357 60 29.472 59.9389 29.2304 59.816C26.4612 58.4116 22.3042 56.1641 18.227 53.4345C14.3738 50.8549 11.2584 48.3077 8.96732 45.8635C6.75564 43.504 5.5376 40.4214 5.5376 37.1837V12.7907C5.5376 11.9409 6.16467 11.2218 7.00642 11.1061C15.1369 9.98861 22.883 6.21412 28.8179 0.477807C29.477 -0.159106 30.5222 -0.159106 31.1813 0.477807C34.3562 3.54636 38.0182 6.04573 42.065 7.90643C42.9182 8.29865 43.2918 9.30845 42.8997 10.1617C42.5075 11.0152 41.4979 11.3889 40.6444 10.9963C36.7414 9.20193 33.1672 6.85947 29.9993 4.02214C24.0901 9.30752 16.7121 12.8897 8.93849 14.2461V37.1838C8.93849 39.5543 9.83005 41.8109 11.4486 43.5378C13.5631 45.7935 16.4803 48.1726 20.1191 50.6085C23.6954 53.0029 27.3474 55.019 29.9997 56.3891C32.652 55.0187 36.3041 53.0028 39.8804 50.6085C43.5193 48.1723 46.4364 45.7935 48.5508 43.5378C50.1697 41.8109 51.061 39.5543 51.061 37.1838V12.7907C51.061 11.8515 51.8222 11.0903 52.7614 11.0903C53.7005 11.0903 54.4618 11.8515 54.4618 12.7907V37.1838C54.4618 40.4216 53.2437 43.5039 51.032 45.8636C48.7409 48.3078 45.6256 50.855 41.7723 53.4346C37.6951 56.1643 33.5383 58.4117 30.769 59.8162C30.527 59.9387 30.2631 60 29.9995 60Z" fill="#003B4A"></path></svg>