<svg width="60" height="60" viewBox="0 0 60 60" fill="none" xmlns="http://www.w3.org/2000/svg"><path d="M53.5835 55.812H14.4268C11.9167 55.812 9.50566 54.6235 7.97672 52.6327L1.23949 43.8597C1.01227 43.5638 0.890039 43.2007 0.892266 42.8277L0.930703 36.1608C0.936094 35.2375 1.68621 34.492 2.60918 34.492C2.6107 34.492 2.61199 34.492 2.61352 34.492C4.60535 34.4972 7.46121 34.5061 9.75516 34.5201C10.7673 34.5261 11.6244 34.5328 12.2307 34.5403C13.5202 34.5561 13.8667 34.5602 14.3619 35.0544L24.24 44.9325C25.3812 46.0737 27.2379 46.0737 28.3791 44.9325L28.3939 44.9176C29.535 43.7766 29.535 41.9197 28.3939 40.7786L19.157 31.6895C18.0497 30.5999 16.5843 29.9998 15.0309 29.9998H1.67848C0.751406 29.9999 0 29.2485 0 28.3214C0 27.3945 0.751406 26.6429 1.67848 26.6429H15.0308C17.4709 26.6429 19.7725 27.5854 21.5114 29.2969L30.7577 38.3953C33.2173 40.8549 33.2173 44.8412 30.7675 47.2913L30.7527 47.306C28.3025 49.7561 24.3162 49.7561 21.8662 47.306L12.4603 37.9001C11.4014 37.885 8.87262 37.8675 4.27793 37.8535L4.25238 42.2714L10.639 50.5879C11.5368 51.7569 12.9527 52.455 14.4267 52.455H53.5834C55.1972 52.455 56.5103 51.1422 56.5103 49.5281V49.5072C56.5103 47.8934 55.1974 46.5803 53.5834 46.5803H37.3835C36.4566 46.5803 35.705 45.8289 35.705 44.9018C35.705 43.9747 36.4564 43.2233 37.3835 43.2233H53.5833C57.048 43.2233 59.867 46.0422 59.867 49.507V49.528C59.8672 52.9931 57.0483 55.812 53.5835 55.812Z" fill="#003B4A"></path><path class="secondary" d="M42.6089 37.2899C51.2863 37.2899 58.3208 30.2555 58.3208 21.578C58.3208 12.9006 51.2863 5.86609 42.6089 5.86609C33.9314 5.86609 26.897 12.9006 26.897 21.578C26.897 30.2555 33.9314 37.2899 42.6089 37.2899Z" fill="#F7CF47"></path><path d="M42.6097 38.9689C33.0206 38.9689 25.2192 31.1677 25.2192 21.5784C25.2192 11.9893 33.0204 4.18811 42.6097 4.18811C52.1989 4.18811 60 11.9893 60 21.5784C60.0003 31.1677 52.1989 38.9689 42.6097 38.9689ZM42.6097 7.54495C34.8716 7.54495 28.5762 13.8403 28.5762 21.5784C28.5762 29.3165 34.8717 35.6119 42.6097 35.6119C50.3478 35.6119 56.6432 29.3164 56.6432 21.5784C56.6432 13.8404 50.3479 7.54495 42.6097 7.54495Z" fill="#003B4A"></path><path d="M41.9634 29.991C39.1437 29.897 36.8408 28.4401 36.8408 26.9363C36.8408 26.1373 37.5458 24.9625 38.4387 24.9625C39.4256 24.9625 40.2245 26.3489 41.9634 26.6543V22.8476C39.8016 22.0252 37.2638 21.0148 37.2638 18.0069C37.2638 15.0226 39.4726 13.5893 41.9634 13.2369V12.579C41.9634 12.2501 42.3394 11.9446 42.8564 11.9446C43.3029 11.9446 43.7494 12.2501 43.7494 12.579V13.1665C45.2063 13.2135 47.9556 13.5894 47.9556 15.2108C47.9556 15.8453 47.5327 17.1376 46.4987 17.1376C45.7233 17.1376 45.2768 16.3856 43.7494 16.2682V19.699C45.8877 20.498 48.3785 21.6024 48.3785 24.7746C48.3785 27.6884 46.4987 29.4508 43.7494 29.8972V30.5787C43.7494 30.9076 43.3029 31.2131 42.8564 31.2131C42.3395 31.2131 41.9634 30.9076 41.9634 30.5787V29.991ZM42.1984 19.1349V16.3385C41.141 16.55 40.6945 17.0905 40.6945 17.6544C40.6945 18.3359 41.3055 18.7589 42.1984 19.1349ZM43.5143 23.482V26.6308C44.3133 26.4428 44.9477 25.9963 44.9477 25.1503C44.9477 24.3749 44.3603 23.8814 43.5143 23.482Z" fill="#003B4A"></path></svg>