<svg width="54" height="60" viewBox="0 0 54 60" fill="none" xmlns="http://www.w3.org/2000/svg"><path class="secondary" d="M27.0007 27.0456C34.0117 27.0456 39.6953 21.3621 39.6953 14.3511C39.6953 7.34005 34.0117 1.65649 27.0007 1.65649C19.9897 1.65649 14.3062 7.34005 14.3062 14.3511C14.3062 21.3621 19.9897 27.0456 27.0007 27.0456Z" fill="#F7CF47"></path><path d="M26.9996 28.702C19.0862 28.702 12.6484 22.2643 12.6484 14.351C12.6484 6.4377 19.0862 0 26.9996 0C34.9127 0 41.3506 6.43793 41.3506 14.3511C41.3506 22.2643 34.9129 28.702 26.9996 28.702ZM26.9996 3.31277C20.913 3.31277 15.9612 8.26453 15.9612 14.3511C15.9612 20.4376 20.913 25.3894 26.9996 25.3894C33.0862 25.3894 38.0378 20.4376 38.0378 14.3511C38.0378 8.26465 33.0862 3.31277 26.9996 3.31277Z" fill="#003B4A"></path><path d="M26.4777 21.1479C24.1995 21.0719 22.3389 19.8949 22.3389 18.6799C22.3389 18.0344 22.9085 17.0851 23.6298 17.0851C24.4271 17.0851 25.0727 18.2052 26.4777 18.452V15.3762C24.731 14.7117 22.6806 13.8954 22.6806 11.4651C22.6806 9.05384 24.4652 7.89591 26.4777 7.61115V7.07947C26.4777 6.81357 26.7814 6.56677 27.1991 6.56677C27.5599 6.56677 27.9206 6.81357 27.9206 7.07947V7.55408C29.0977 7.59205 31.3191 7.8958 31.3191 9.20584C31.3191 9.71853 30.9773 10.7627 30.142 10.7627C29.5154 10.7627 29.1548 10.1551 27.9209 10.0602V12.8321C29.6484 13.4776 31.661 14.3699 31.661 16.9329C31.661 19.2871 30.1423 20.7111 27.9209 21.0718V21.6223C27.9209 21.8882 27.56 22.135 27.1993 22.135C26.7816 22.135 26.4779 21.8882 26.4779 21.6223V21.1477H26.4777V21.1479ZM26.6675 12.3767V10.1173C25.8131 10.2883 25.4524 10.7249 25.4524 11.1806C25.4525 11.7311 25.9461 12.0728 26.6675 12.3767ZM27.7308 15.889V18.4331C28.3763 18.2812 28.8889 17.9204 28.8889 17.2369C28.8888 16.6104 28.4142 16.2117 27.7308 15.889Z" fill="#003B4A"></path><path d="M43.6165 60H10.3831C6.84111 60 3.95947 57.1185 3.95947 53.5765V33.7495C3.95947 32.8348 4.70104 32.093 5.61592 32.093C6.5308 32.093 7.27236 32.8347 7.27236 33.7495V53.5765C7.27236 55.2917 8.66783 56.6873 10.3832 56.6873H43.6167C45.3321 56.6873 46.7275 55.2918 46.7275 53.5765V42.6071C46.7275 41.6924 47.4691 40.9506 48.384 40.9506C49.2988 40.9506 50.0404 41.6923 50.0404 42.6071V53.5765C50.0401 57.1185 47.1584 60 43.6165 60Z" fill="#003B4A"></path><path d="M47.582 35.4058H6.41758C3.10398 35.4058 0.408203 32.7101 0.408203 29.3965C0.408203 26.0829 3.10398 23.3871 6.41758 23.3871H9.27285C10.1877 23.3871 10.9293 24.1288 10.9293 25.0435C10.9293 25.9582 10.1877 26.7 9.27285 26.7H6.41758C4.93059 26.7 3.72098 27.9098 3.72098 29.3966C3.72098 30.8833 4.93059 32.0932 6.41758 32.0932H47.582C49.069 32.0932 50.2786 30.8833 50.2786 29.3966C50.2786 27.9098 49.0689 26.7 47.582 26.7H44.7268C43.8119 26.7 43.0703 25.9583 43.0703 25.0435C43.0703 24.1289 43.8119 23.3871 44.7268 23.3871H47.582C50.8956 23.3871 53.5914 26.0829 53.5914 29.3965C53.5914 32.7101 50.8956 35.4058 47.582 35.4058Z" fill="#003B4A"></path></svg>