<svg width="60" height="60" viewBox="0 0 80 80" fill="none" xmlns="http://www.w3.org/2000/svg"><path d="M59.4512 32.9759C53.2245 32.9759 48.1587 27.9101 48.1587 21.6832C48.1587 15.4565 53.2245 10.3907 59.4512 10.3907C65.6781 10.3907 70.7438 15.4565 70.7438 21.6832C70.7438 22.9603 69.7082 23.9959 68.4312 23.9959C67.1542 23.9959 66.1185 22.9603 66.1185 21.6832C66.1185 18.007 63.1274 15.0162 59.4512 15.0162C55.7749 15.0162 52.7842 18.0072 52.7842 21.6832C52.7842 25.3595 55.7751 28.3506 59.4512 28.3506C60.7282 28.3506 61.7638 29.3862 61.7638 30.6632C61.7638 31.9403 60.7284 32.9759 59.4512 32.9759Z" fill="#003B4A"></path><path d="M63.0439 74.7086H58.1832C54.37 74.7086 51.178 71.8508 50.7585 68.0608L48.3236 46.0836C48.2513 45.4298 48.4605 44.7762 48.8992 44.2864C49.3377 43.7964 49.9644 43.5162 50.6222 43.5162H68.2807C69.5577 43.5162 70.5933 44.5519 70.5933 45.8289C70.5933 47.1059 69.5577 48.1415 68.2807 48.1415H53.2053L55.356 67.5515C55.5155 68.9948 56.7311 70.0833 58.1835 70.0833H63.0442C64.3213 70.0833 65.3569 71.1189 65.3569 72.3959C65.3569 73.673 64.3211 74.7086 63.0439 74.7086Z" fill="#003B4A"></path><path d="M70.078 55.741H48.8247V35.3141C48.8247 32.6908 50.9514 30.5641 53.5747 30.5641H65.3281C67.9514 30.5641 70.0781 32.6908 70.0781 35.3141V55.741H70.078Z" fill="#F7CF47"></path><path d="M70.0781 58.0536H48.8249C47.5478 58.0536 46.5122 57.0179 46.5122 55.7409V35.314C46.5122 31.4197 49.6806 28.2512 53.575 28.2512H65.3281C69.2225 28.2512 72.391 31.4197 72.391 35.314V55.7409C72.3908 57.0182 71.3552 58.0536 70.0781 58.0536ZM51.1374 53.4283H67.7652V35.314C67.7652 33.97 66.6717 32.8767 65.3278 32.8767H53.5747C52.2305 32.8767 51.1374 33.9701 51.1374 35.314V53.4283Z" fill="#003B4A"></path><path d="M24.1412 74.7086H19.2805C15.4675 74.7086 12.2755 71.8508 11.8555 68.0609L9.42078 46.0836C9.34843 45.4298 9.55797 44.7762 9.9964 44.2861C10.4352 43.7962 11.0616 43.5162 11.7194 43.5162H29.3778C30.6548 43.5162 31.6905 44.5519 31.6905 45.8289C31.6905 47.1059 30.6548 48.1415 29.3778 48.1415H14.3025L16.4528 67.5519C16.6127 68.995 17.8281 70.0834 19.2806 70.0834H24.1414C25.4184 70.0834 26.4541 71.119 26.4541 72.3961C26.4541 73.6731 25.4183 74.7086 24.1412 74.7086Z" fill="#003B4A"></path><path d="M31.1755 55.741H9.92188V35.3141C9.92188 32.6908 12.0486 30.5641 14.6719 30.5641H26.4253C29.0486 30.5641 31.1753 32.6908 31.1753 35.3141V55.741H31.1755Z" fill="#F7CF47"></path><path d="M31.1756 58.0536H9.92203C8.645 58.0536 7.60938 57.0179 7.60938 55.7409V35.314C7.60938 31.4197 10.7778 28.2512 14.6722 28.2512H26.4253C30.3197 28.2512 33.4881 31.4197 33.4881 35.314V55.7409C33.4883 57.0182 32.4527 58.0536 31.1756 58.0536ZM12.2348 53.4283H28.8627V35.314C28.8627 33.97 27.7692 32.8767 26.4253 32.8767H14.6722C13.328 32.8767 12.2348 33.9701 12.2348 35.314V53.4283Z" fill="#003B4A"></path><path d="M20.549 32.9759C14.3221 32.9759 9.25635 27.9101 9.25635 21.6832C9.25635 15.4565 14.3221 10.3907 20.549 10.3907C26.7757 10.3907 31.8415 15.4565 31.8415 21.6832C31.8415 27.9101 26.7756 32.9759 20.549 32.9759ZM20.549 15.0161C16.8728 15.0161 13.8817 18.007 13.8817 21.6831C13.8817 25.3593 16.8728 28.3504 20.549 28.3504C24.2253 28.3504 27.216 25.3593 27.216 21.6831C27.216 18.0068 24.2251 15.0161 20.549 15.0161Z" fill="#003B4A"></path><path d="M44.7559 79.9999H37.5685C33.3321 79.9999 29.7859 76.8247 29.3193 72.6141L26.0131 42.7719C25.9407 42.1182 26.15 41.4646 26.5887 40.9747C27.0271 40.4847 27.6539 40.2046 28.3117 40.2046H51.6879C52.965 40.2046 54.0006 41.2402 54.0006 42.5172C54.0006 43.7943 52.965 44.8299 51.6879 44.8299H30.8948L33.9165 72.1049C34.1231 73.9691 35.6929 75.3746 37.5682 75.3746H44.7556C46.0326 75.3746 47.0682 76.4102 47.0682 77.6873C47.0682 78.9643 46.0332 79.9999 44.7559 79.9999Z" fill="#003B4A"></path><path d="M54.0674 55.7144H25.9321V31.9661C25.9321 28.4933 28.7474 25.6779 32.2204 25.6779H47.7796C51.2524 25.6779 54.0679 28.4932 54.0679 31.9661V55.7143H54.0674V55.7144Z" fill="#F7CF47"></path><path d="M54.0676 58.027H25.9323C24.6553 58.027 23.6196 56.9914 23.6196 55.7144V31.9661C23.6196 27.2236 27.4781 23.3655 32.2203 23.3655H47.7795C52.522 23.3655 56.3801 27.2239 56.3801 31.9661V55.7145C56.3804 56.9917 55.3449 58.027 54.0676 58.027ZM28.2449 53.4016H51.7549V31.9661C51.7549 29.7739 49.9717 27.9908 47.7796 27.9908H32.2204C30.0282 27.9908 28.2451 29.7741 28.2451 31.9661V53.4016H28.2449Z" fill="#003B4A"></path><path d="M39.9999 27.8427C32.3238 27.8427 26.0786 21.5975 26.0786 13.9214C26.0786 6.24531 32.3238 0 39.9999 0C47.676 0 53.9211 6.245 53.9211 13.9211C53.9211 21.5972 47.676 27.8427 39.9999 27.8427ZM39.9999 4.62547C34.8739 4.62547 30.7039 8.79547 30.7039 13.9211C30.7039 19.047 34.8739 23.217 39.9999 23.217C45.1258 23.217 49.2958 19.047 49.2958 13.9211C49.2958 8.79547 45.1258 4.62547 39.9999 4.62547Z" fill="#003B4A"></path></svg>