<svg width="60" height="52" viewBox="0 0 60 52" fill="none" xmlns="http://www.w3.org/2000/svg"><path d="M40.2617 44.1014C39.7379 44.1014 39.2212 43.8615 38.8858 43.4079C38.3249 42.6488 38.4857 41.5787 39.2449 41.018C46.6367 35.5566 51.6673 30.7706 53.7932 27.1772C55.7479 23.873 56.582 20.8238 56.582 16.9815C56.582 7.76826 50.0773 3.6442 43.6309 3.6442C37.6911 3.6442 35.0672 6.89463 34.0319 8.83197C33.6643 9.51986 32.9504 9.9476 32.1685 9.94818C32.168 9.94818 32.1674 9.94818 32.1667 9.94818C31.3855 9.94818 30.6716 9.52162 30.3033 8.83479C29.264 6.89615 26.6318 3.64408 20.6815 3.64408C14.4216 3.64408 9.63368 7.23869 8.18606 13.0251C7.95707 13.9405 7.0293 14.4972 6.11348 14.2682C5.19789 14.0392 4.64125 13.1111 4.87036 12.1956C6.68934 4.92447 12.8955 0.226074 20.6815 0.226074C26.8206 0.226074 30.2941 2.98994 32.1652 5.43576C34.0319 2.98959 37.4984 0.226074 43.6307 0.226074C48.0409 0.226074 52.1 1.7692 55.0601 4.57115C58.2916 7.62975 59.9996 11.921 59.9996 16.9812C59.9996 21.419 58.9925 25.0999 56.7346 28.917C53.7571 33.9499 46.6844 39.7701 41.2757 43.7664C40.9703 43.9926 40.6144 44.1014 40.2617 44.1014Z" fill="#003B4A"></path><path class="secondary" d="M11.2156 20.3647C15.6523 20.3647 17.6429 22.8516 18.4262 24.3122C18.5247 24.4956 18.7916 24.4954 18.8897 24.3119C19.6702 22.8511 21.65 20.3647 26.0863 20.3647C31.1402 20.3647 35.5858 23.8147 35.5858 30.1143C35.5858 32.6635 35.0663 34.8474 33.6244 37.2846C30.6861 42.2515 21.0064 48.6901 19.018 49.9589C18.7983 50.0992 18.5199 50.0996 18.2996 49.9597C16.3097 48.6971 6.62816 42.2903 3.66695 37.2845C2.22484 34.8476 1.70898 32.6636 1.70898 30.1144C1.70898 23.8147 6.16188 20.3647 11.2156 20.3647Z" fill="#F7CF47"></path><path d="M18.6579 51.7735C18.2063 51.7735 17.7656 51.6453 17.3836 51.4029C16.1793 50.6388 5.51988 43.7739 2.19586 38.1551C0.677227 35.5877 0 33.1081 0 30.1145C0 26.6664 1.1734 23.7346 3.39293 21.6356C5.42496 19.7141 8.20301 18.6559 11.2155 18.6559C14.9923 18.6559 17.3152 20.2428 18.6562 21.7121C19.9946 20.2425 22.3136 18.6559 26.0863 18.6559C29.0985 18.6559 31.8755 19.7142 33.9059 21.6361C36.1228 23.7344 37.2947 26.6664 37.2947 30.1144C37.2947 33.1038 36.6164 35.5834 35.0953 38.1548C31.7955 43.7326 21.1414 50.6313 19.9375 51.3995C19.5537 51.6443 19.1114 51.7735 18.6579 51.7735ZM11.2155 22.0738C7.33418 22.0738 3.41789 24.5601 3.41789 30.1145C3.41789 32.4929 3.93223 34.3772 5.13762 36.4147C7.40379 40.2456 14.4473 45.4298 18.656 48.1584C22.6461 45.5519 29.9057 40.2139 32.1533 36.4147C33.3612 34.3728 33.8764 32.4886 33.8764 30.1145C33.8764 24.5601 29.9637 22.0738 26.0859 22.0738C22.7277 22.0738 21.1384 23.7288 20.3966 25.1174C20.0536 25.7596 19.3871 26.1588 18.6577 26.1588C17.9295 26.1588 17.2637 25.7608 16.9202 25.1203C16.1749 23.7302 14.5806 22.0738 11.2155 22.0738Z" fill="#003B4A"></path></svg>