<svg width="60" height="60" viewBox="0 0 60 60" fill="none" xmlns="http://www.w3.org/2000/svg"><path class="secondary" d="M24.0053 1.67444C27.5841 1.67444 29.1898 3.68034 29.8216 4.85854C29.9009 5.00655 30.1163 5.00643 30.1953 4.85819C30.8249 3.67999 32.4218 1.67444 36.0003 1.67444C40.0768 1.67444 43.6627 4.45717 43.6627 9.53877C43.6627 11.5951 43.2435 13.3566 42.0807 15.3226C39.7105 19.3289 31.9026 24.5225 30.2987 25.546C30.1214 25.6592 29.8969 25.6593 29.7193 25.5467C28.114 24.5281 20.3048 19.3603 17.9161 15.3224C16.753 13.3564 16.3369 11.5949 16.3369 9.53866C16.337 4.45717 19.9289 1.67444 24.0053 1.67444Z" fill="#F7CF47"></path><path d="M30.0084 27.3055C29.5883 27.3055 29.1784 27.1864 28.8228 26.9611C27.8442 26.34 19.1905 20.7653 16.4751 16.1753C15.2216 14.0566 14.6626 12.01 14.6626 9.53883C14.6626 6.67406 15.641 4.23469 17.492 2.48426C19.1864 0.882305 21.4995 0 24.0053 0C26.9633 0 28.8563 1.1693 30.0067 2.33098C31.1551 1.1693 33.0453 0 36.0003 0C38.506 0 40.8183 0.882656 42.5114 2.48496C44.36 4.2348 45.3372 6.67406 45.3372 9.53883C45.3372 12.0062 44.7773 14.053 43.5219 16.1753C40.8249 20.7343 32.1767 26.3343 31.1995 26.9576C30.843 27.1853 30.431 27.3055 30.0084 27.3055ZM24.0053 3.34898C21.0219 3.34898 18.0115 5.26301 18.0115 9.53883C18.0115 11.4257 18.4013 12.8544 19.3572 14.47C21.1261 17.4596 26.7784 21.6258 30.0067 23.7396C33.2345 21.6159 38.8831 17.4389 40.6394 14.47C41.5974 12.8507 41.9881 11.4221 41.9881 9.53883C41.9881 5.26301 38.9808 3.34898 36.0002 3.34898C33.4379 3.34898 32.2324 4.59879 31.6721 5.64738C31.3433 6.26238 30.7058 6.64383 30.0079 6.64383C29.3114 6.64383 28.6744 6.2632 28.3455 5.6502C27.783 4.6002 26.5732 3.34898 24.0053 3.34898Z" fill="#003B4A"></path><path d="M49.006 60H10.9939C8.73508 60 6.89746 58.1624 6.89746 55.9036V31.6884C6.89746 29.4297 8.73508 27.592 10.9939 27.592H22.3955C23.3202 27.592 24.07 28.3419 24.07 29.2665V34.5666H37.6045C38.5291 34.5666 39.2789 35.3165 39.2789 36.2411C39.2789 37.1658 38.5291 37.9156 37.6045 37.9156H22.3955C21.4709 37.9156 20.721 37.1657 20.721 36.2411V30.941H10.9939C10.5817 30.941 10.2466 31.2763 10.2466 31.6883V55.9035C10.2466 56.3156 10.5818 56.6508 10.9939 56.6508H49.006C49.4181 56.6508 49.7533 56.3155 49.7533 55.9035V31.6884C49.7533 31.2763 49.418 30.9411 49.006 30.9411H37.6043C36.6796 30.9411 35.9298 30.1913 35.9298 29.2667C35.9298 28.342 36.6797 27.5922 37.6043 27.5922H49.006C51.2648 27.5922 53.1024 29.4298 53.1024 31.6886V55.9037C53.1024 58.1624 51.2648 60 49.006 60Z" fill="#003B4A"></path><path d="M20.5282 47.2561H17.8369V50.9212C17.8369 51.354 17.3094 51.5704 16.782 51.5704C16.2545 51.5704 15.7271 51.354 15.7271 50.9212V42.3198C15.7271 41.8736 16.2544 41.6842 16.782 41.6842C17.3093 41.6842 17.8369 41.8736 17.8369 42.3198V45.6332H20.5282V42.3198C20.5282 41.8736 21.0556 41.6842 21.583 41.6842C22.1105 41.6842 22.6379 41.8736 22.6379 42.3198V50.9212C22.6379 51.354 22.1106 51.5704 21.583 51.5704C21.0557 51.5704 20.5282 51.354 20.5282 50.9212V47.2561Z" fill="#003B4A"></path><path d="M26.2074 45.8088H28.2359C28.6416 45.8088 28.8715 46.2012 28.8715 46.6338C28.8715 46.999 28.6821 47.4319 28.2359 47.4319H26.2074V49.7309H29.8319C30.2376 49.7309 30.4675 50.1638 30.4675 50.664C30.4675 51.0967 30.2781 51.5701 29.8319 51.5701H25.0173C24.5575 51.5701 24.0977 51.3538 24.0977 50.9209V42.3333C24.0977 41.9004 24.5575 41.6841 25.0173 41.6841H29.8319C30.2781 41.6841 30.4675 42.1575 30.4675 42.5902C30.4675 43.0906 30.2376 43.5233 29.8319 43.5233H26.2074V45.8088Z" fill="#003B4A"></path><path d="M32.3059 51.5704C31.8461 51.5704 31.3862 51.3541 31.3862 50.9212V42.3198C31.3862 41.8736 31.9136 41.6842 32.4412 41.6842C32.9685 41.6842 33.4961 41.8736 33.4961 42.3198V49.7311H36.5795C36.9852 49.7311 37.1882 50.191 37.1882 50.6508C37.1882 51.1107 36.9852 51.5705 36.5795 51.5705H32.3059V51.5704Z" fill="#003B4A"></path><path d="M38.0391 42.3198C38.0391 41.9816 38.35 41.6842 38.8235 41.6842H41.623C43.4082 41.6842 44.8148 42.5228 44.8148 44.7948V44.8623C44.8148 47.1344 43.3542 47.9999 41.4879 47.9999H40.1491V50.921C40.1491 51.3539 39.6217 51.5703 39.0942 51.5703C38.5668 51.5703 38.0393 51.3539 38.0393 50.921V42.3199H38.0391V42.3198ZM40.149 43.5235V46.377H41.4878C42.2452 46.377 42.7051 45.9441 42.7051 45.0246V44.8758C42.7051 43.9561 42.2453 43.5235 41.4878 43.5235H40.149Z" fill="#003B4A"></path></svg>