<svg width="60" height="60" viewBox="0 0 60 60" fill="none" xmlns="http://www.w3.org/2000/svg"><path d="M53.5837 55.8119H14.4269C11.9167 55.8119 9.50569 54.6234 7.97674 52.6326L1.2395 43.8596C1.01227 43.5637 0.890041 43.2006 0.892268 42.8276L0.930706 36.1607C0.936096 35.2374 1.68622 34.4919 2.60919 34.4919C2.61071 34.4919 2.612 34.4919 2.61352 34.4919C4.60536 34.4971 7.46123 34.506 9.75518 34.5199C10.7673 34.526 11.6244 34.5327 12.2308 34.5402C13.5202 34.556 13.8667 34.5601 14.362 35.0543L24.2401 44.9324C25.3812 46.0736 27.238 46.0736 28.3791 44.9324L28.394 44.9175C29.5351 43.7765 29.5351 41.9197 28.394 40.7785L19.157 31.6894C18.0497 30.5998 16.5843 29.9997 15.031 29.9997H1.67848C0.751408 29.9998 0 29.2484 0 28.3213C0 27.3943 0.751408 26.6428 1.67848 26.6428H15.0309C17.4709 26.6428 19.7725 27.5852 21.5115 29.2968L30.7578 38.3952C33.2174 40.8548 33.2174 44.8411 30.7675 47.2912L30.7528 47.306C28.3026 49.756 24.3162 49.756 21.8663 47.306L12.4603 37.9C11.4014 37.8849 8.87264 37.8674 4.27794 37.8534L4.25239 42.2713L10.639 50.5878C11.5368 51.7569 12.9528 52.4549 14.4268 52.4549H53.5835C55.1973 52.4549 56.5104 51.1421 56.5104 49.5281V49.5071C56.5104 47.8933 55.1976 46.5802 53.5835 46.5802H37.3836C36.4567 46.5802 35.7051 45.8288 35.7051 44.9017C35.7051 43.9747 36.4565 43.2232 37.3836 43.2232H53.5834C57.0482 43.2232 59.8671 46.0421 59.8671 49.507V49.5279C59.8674 52.9931 57.0484 55.8119 53.5837 55.8119Z" fill="#003B4A"></path><path d="M42.6089 37.29C51.2864 37.29 58.3208 30.2555 58.3208 21.578C58.3208 12.9006 51.2864 5.86609 42.6089 5.86609C33.9314 5.86609 26.897 12.9006 26.897 21.578C26.897 30.2555 33.9314 37.29 42.6089 37.29Z" fill="#F7CF47"></path><path d="M42.6098 38.969C33.0207 38.969 25.2192 31.1678 25.2192 21.5784C25.2192 11.9893 33.0204 4.18811 42.6098 4.18811C52.1989 4.18811 60.0001 11.9893 60.0001 21.5784C60.0003 31.1678 52.1989 38.969 42.6098 38.969ZM42.6098 7.54495C34.8716 7.54495 28.5762 13.8403 28.5762 21.5784C28.5762 29.3166 34.8718 35.612 42.6098 35.612C50.3478 35.612 56.6432 29.3164 56.6432 21.5784C56.6432 13.8404 50.3479 7.54495 42.6098 7.54495Z" fill="#003B4A"></path><path d="M41.9635 29.991C39.1437 29.8971 36.8408 28.4402 36.8408 26.9363C36.8408 26.1373 37.5458 24.9625 38.4387 24.9625C39.4256 24.9625 40.2245 26.349 41.9635 26.6543V22.8476C39.8016 22.0252 37.2638 21.0148 37.2638 18.0069C37.2638 15.0226 39.4726 13.5893 41.9635 13.2369V12.579C41.9635 12.2501 42.3394 11.9446 42.8564 11.9446C43.3029 11.9446 43.7494 12.2501 43.7494 12.579V13.1665C45.2063 13.2135 47.9556 13.5894 47.9556 15.2108C47.9556 15.8453 47.5327 17.1376 46.4987 17.1376C45.7233 17.1376 45.2768 16.3856 43.7494 16.2682V19.699C45.8877 20.498 48.3785 21.6024 48.3785 24.7747C48.3785 27.6884 46.4987 29.4508 43.7494 29.8973V30.5787C43.7494 30.9077 43.3029 31.2132 42.8564 31.2132C42.3395 31.2132 41.9635 30.9077 41.9635 30.5787V29.991ZM42.1984 19.1349V16.3385C41.141 16.5501 40.6945 17.0905 40.6945 17.6544C40.6945 18.3359 41.3056 18.7589 42.1984 19.1349ZM43.5143 23.4821V26.6308C44.3133 26.4428 44.9478 25.9963 44.9478 25.1504C44.9478 24.3749 44.3603 23.8814 43.5143 23.4821Z" fill="#003B4A"></path></svg>